<svg xmlns="http://www.w3.org/2000/svg" width="224.096" height="34.981" viewBox="0 0 224.096 34.981">
  <g id="Ohio_State_web_mark_horizontal" data-name="Ohio State web mark horizontal" transform="translate(-17.3 -15.25)">
    <path id="Path_100" data-name="Path 100" d="M25.792,41.921v-15.5L28.12,24.1h7.537l2.323,2.323v15.5L35.657,44.25H28.12ZM25.656,18.17,19.88,23.946V44.411l5.776,5.782H38.1l5.75-5.719V23.9l-5.745-5.73Z" transform="translate(-1.236 -1.399)" fill="#ba0c2f"/>
    <path id="Path_101" data-name="Path 101" d="M24.149,49.6l-6.261-6.256V22.094l6.256-6.25H37.218l6.151,6.167.021,21.376L37.181,49.6ZM23.884,15.25,17.3,21.829V43.611l6.537,6.62h13.61l6.579-6.589V21.823L37.494,15.25Z" transform="translate(0 0)" fill="#666"/>
    <path id="Path_102" data-name="Path 102" d="M43.344,33.119,41.494,31.27H34.838L33.02,33.093v14.73L34.8,49.6h6.782l1.766-1.766V33.119ZM35.1,31.869h6.183l1.474,1.474V47.594l-1.417,1.417h-6.3l-1.4-1.4V33.322Z" transform="translate(-7.532 -7.676)" fill="#666"/>
    <g id="Group_633" data-name="Group 633" transform="translate(49.182 19.193)">
      <rect id="Rectangle_293" data-name="Rectangle 293" width="192.214" height="21.741" fill="none"/>
      <path id="Path_103" data-name="Path 103" d="M94.744,40.425l-.177-1.219H92.337v7.881l1.188.177v.745H89.3v-.745l1.188-.177V39.206H88.259l-.177,1.219H87.29V38.18h8.245v2.245Z" transform="translate(-82.717 -30.18)" fill="#666"/>
      <path id="Path_104" data-name="Path 104" d="M108.99,49.969V49.26l1.1-.177V46.4h-2.932v2.682l1.1.177v.708H104.25V49.26l1.146-.177V43.145l-1.146-.177V42.26h4.005v.708l-1.1.177v2.318h2.932V43.145l-1.1-.177V42.26H113v.708l-1.146.177v5.938L113,49.26v.708Z" transform="translate(-90.843 -32.134)" fill="#666"/>
      <path id="Path_105" data-name="Path 105" d="M129.326,49.969H122.68V49.26l1.141-.177V43.145l-1.141-.177V42.26h6.646V44.3h-.75l-.177-1.1h-2.818v2.287h1.761l.177-.979h.662v2.844h-.662l-.177-.984h-1.761v2.656H128.4l.177-1.1h.75Z" transform="translate(-99.673 -32.134)" fill="#666"/>
      <path id="Path_106" data-name="Path 106" d="M149.346,48.023c-3.052,0-4.386-1.818-4.386-5.12,0-3.287,1.349-5.063,4.4-5.063s4.386,1.818,4.386,5.12-1.349,5.063-4.4,5.063m.016-9.11c-1.63,0-2.464,1.307-2.464,4.005,0,2.714.807,4.037,2.438,4.037s2.464-1.307,2.464-4.005c-.005-2.719-.807-4.037-2.438-4.037" transform="translate(-110.349 -30.017)" fill="#666"/>
      <path id="Path_107" data-name="Path 107" d="M168.09,49.969V49.26l1.1-.177V46.4h-2.938v2.682l1.1.177v.708H163.35V49.26l1.146-.177V43.145l-1.146-.177V42.26h4.005v.708l-1.1.177v2.318h2.938V43.145l-1.1-.177V42.26H172.1v.708l-1.141.177v5.938l1.141.177v.708Z" transform="translate(-119.16 -32.134)" fill="#666"/>
      <path id="Path_108" data-name="Path 108" d="M181.98,49.969V49.26l1.141-.177V43.145l-1.141-.177V42.26h4.047v.708l-1.146.177v5.938l1.146.177v.708Z" transform="translate(-128.086 -32.134)" fill="#666"/>
      <path id="Path_109" data-name="Path 109" d="M194.659,50c-2.6,0-3.729-1.453-3.729-4.005s1.146-3.974,3.74-3.974,3.729,1.453,3.729,4.005S197.258,50,194.659,50m.016-6.969c-1.234,0-1.891.9-1.891,2.964,0,2.083.63,2.995,1.865,2.995s1.906-.9,1.906-2.964c-.005-2.089-.646-2.995-1.88-2.995" transform="translate(-132.374 -32.019)" fill="#666"/>
      <path id="Path_110" data-name="Path 110" d="M217.858,48.013a8.584,8.584,0,0,1-3.068-.589v-2.1h.833l.193,1.349a5.821,5.821,0,0,0,1.745.219c1.146,0,2.172-.38,2.172-1.63,0-1.13-.792-1.292-1.761-1.615-1.542-.516-3.172-.953-3.172-3.068,0-1.714,1.073-2.761,3.318-2.761a8.465,8.465,0,0,1,2.932.557v1.964h-.833l-.188-1.26a9.352,9.352,0,0,0-1.734-.193c-.849,0-1.729.292-1.729,1.422,0,2.448,4.933.833,4.933,4.755,0,1.865-1.2,2.948-3.641,2.948" transform="translate(-143.807 -30.007)" fill="#666"/>
      <path id="Path_111" data-name="Path 111" d="M235.256,44.39l-.177-1.188h-1.7v5.886l1.141.172v.708h-4.047V49.26l1.141-.172V43.2h-1.7l-.177,1.188h-.75V42.26h7.016v2.13Z" transform="translate(-150.61 -32.134)" fill="#666"/>
      <path id="Path_112" data-name="Path 112" d="M246.737,49.969V49.26l1.1-.177-.542-1.391h-2.932l-.542,1.391,1.1.177v.7h-3.36v-.7l1.1-.177,2.641-6.823h1.688l2.641,6.823,1.1.177v.7h-4Zm-.912-6.224L244.711,46.8h2.229Z" transform="translate(-156.633 -32.134)" fill="#666"/>
      <path id="Path_113" data-name="Path 113" d="M264.526,44.39l-.177-1.188h-1.7v5.886l1.146.172v.708h-4.047V49.26l1.146-.172V43.2h-1.708l-.172,1.188h-.75V42.26h7.016v2.13Z" transform="translate(-164.635 -32.134)" fill="#666"/>
      <path id="Path_114" data-name="Path 114" d="M279.666,49.969H273.02V49.26l1.146-.177V43.145l-1.146-.177V42.26h6.646V44.3h-.745l-.177-1.1h-2.818v2.287h1.76l.177-.979h.661v2.844h-.661l-.177-.984h-1.76v2.656h2.818l.177-1.1h.745Z" transform="translate(-171.707 -32.134)" fill="#666"/>
      <path id="Path_115" data-name="Path 115" d="M303.412,39.1v5.021c0,1.688-.1,2.422-.9,3.214a3.973,3.973,0,0,1-2.906.849,4.194,4.194,0,0,1-3.052-1.026c-.833-.839-.75-2.083-.75-3.172V39.1l-1.188-.177v-.75h4.224v.75l-1.188.177v5.756a2.015,2.015,0,0,0,2.276,2.261,2.245,2.245,0,0,0,1.729-.573,2.361,2.361,0,0,0,.542-1.688V39.1l-1.188-.177v-.75h3.578v.75Z" transform="translate(-182.056 -30.175)" fill="#666"/>
      <path id="Path_116" data-name="Path 116" d="M322.289,43.145v6.823h-1.38l-3.917-5.506v4.625l1.146.172v.708H314.69V49.26l1.141-.172V43.145l-1.141-.177V42.26h2.682l3.761,5.256v-4.37l-1.146-.177V42.26h3.448v.708Z" transform="translate(-191.672 -32.134)" fill="#666"/>
      <path id="Path_117" data-name="Path 117" d="M333.22,49.969V49.26l1.146-.177V43.145l-1.146-.177V42.26h4.052v.708l-1.146.177v5.938l1.146.177v.708Z" transform="translate(-200.551 -32.134)" fill="#666"/>
      <path id="Path_118" data-name="Path 118" d="M350.208,43.145l-2.568,6.823h-1.7l-2.568-6.823-1.1-.177V42.26h3.99v.708l-1.1.177,1.953,5.282,1.932-5.282-1.1-.177V42.26h3.36v.708Z" transform="translate(-204.887 -32.134)" fill="#666"/>
      <path id="Path_119" data-name="Path 119" d="M367.426,49.969H360.78V49.26l1.141-.177V43.145l-1.141-.177V42.26h6.646V44.3h-.75l-.177-1.1h-2.818v2.287h1.761l.177-.979h.661v2.844h-.661l-.177-.984h-1.761v2.656H366.5l.177-1.1h.75Z" transform="translate(-213.756 -32.134)" fill="#666"/>
      <path id="Path_120" data-name="Path 120" d="M381.373,49.969l-.719-1.761c-.484-1.172-.776-1.714-1.807-1.714h-.13v2.6l1.1.177v.7H375.81V49.26l1.146-.177V43.145l-1.146-.177V42.26H379.7a3.343,3.343,0,0,1,2.318.6,1.919,1.919,0,0,1,.615,1.438,2.059,2.059,0,0,1-1.4,1.953,8.34,8.34,0,0,1,1.526,2.833l1.1.177v.7h-2.495Zm-.818-6.532c-.3-.307-.922-.281-1.318-.281h-.516V45.62h.307c.5,0,1.188.057,1.557-.354a1.494,1.494,0,0,0-.031-1.828" transform="translate(-220.957 -32.134)" fill="#666"/>
      <path id="Path_121" data-name="Path 121" d="M395.531,49.99a7.885,7.885,0,0,1-2.641-.484V47.511h.792l.193,1.26a5.607,5.607,0,0,0,1.422.161c.938,0,1.656-.307,1.656-1.146,0-.589-.323-.792-.807-.953-1.422-.484-3.24-.693-3.24-2.615,0-1.38.953-2.219,2.844-2.219a7.756,7.756,0,0,1,2.537.453v1.912h-.792l-.193-1.2a6.986,6.986,0,0,0-1.365-.146c-.719,0-1.349.25-1.349,1,0,1.714,4.063.573,4.063,3.625.005,1.495-1.078,2.349-3.12,2.349" transform="translate(-229.141 -32.01)" fill="#666"/>
      <path id="Path_122" data-name="Path 122" d="M405.93,49.969V49.26l1.146-.177V43.145l-1.146-.177V42.26h4.052v.708l-1.146.177v5.938l1.146.177v.708Z" transform="translate(-235.389 -32.134)" fill="#666"/>
      <path id="Path_123" data-name="Path 123" d="M421.576,44.39,421.4,43.2h-1.7v5.886l1.146.172v.708h-4.052V49.26l1.146-.172V43.2h-1.7l-.177,1.188h-.75V42.26h7.016v2.13Z" transform="translate(-239.883 -32.134)" fill="#666"/>
      <path id="Path_124" data-name="Path 124" d="M437.541,43.145,435.3,46.62v2.469l1.146.172v.708h-4.052V49.26l1.146-.172V46.62l-2.276-3.474-1.1-.177V42.26h4.078v.708l-1.1.177,1.583,2.49,1.573-2.49-1.057-.177V42.26h3.4v.708Z" transform="translate(-246.998 -32.134)" fill="#666"/>
      <rect id="Rectangle_294" data-name="Rectangle 294" width="192.214" height="21.741" fill="none"/>
    </g>
  </g>
</svg>
